# xmcd
#
# Track frame offsets: 
#        150
#        3482
#        19902
#        33275
#        52227
#        82000
#        89655
#        105385
#        119857
#        139000
#        159842
#        163517
#        187926
#        208723
#        231458
#        249271
#        276080
#        293905
#        315036
#        341437
#
# Disc length: 4795 seconds
#
# Revision: 1
# Processed by: cddbd v1.5.1PL2 Copyright (c) Steve Scherf et al.
# Submitted via: ExactAudioCopy v0.95b3
#
DISCID=1312b914
DTITLE=The Moody Blues - In Search of the Lost Chord - Seventh Sojourn
DYEAR=1968
DGENRE=Rock
TTITLE0=departure
TTITLE1=ride my see-saw
TTITLE2=dr.livingstone,i presume
TTITLE3=house of four doors 
TTITLE4=legend of a mind
TTITLE5=house of four doors(part2)
TTITLE6=voices in tne sky
TTITLE7=the best way to traval
TTITLE8=visions of paradise
TTITLE9=the actor
TTITLE10=the word
TTITLE11=om
TTITLE12=lost in a lost world
TTITLE13=new horizons
TTITLE14=for my lady
TTITLE15=isn't life strange
TTITLE16=you and me
TTITLE17=the land of make-believe
TTITLE18=when you're a free man
TTITLE19=i'm just a singer(in a rock and roll band) 
EXTD=
EXTT0=
EXTT1=
EXTT2=
EXTT3=
EXTT4=
EXTT5=
EXTT6=
EXTT7=
EXTT8=
EXTT9=
EXTT10=
EXTT11=
EXTT12=
EXTT13=
EXTT14=
EXTT15=
EXTT16=
EXTT17=
EXTT18=
EXTT19=
PLAYORDER=
